<svg xmlns="http://www.w3.org/2000/svg" width="24" height="24" fill="none"><path fill="#F89062" fill-rule="evenodd" d="M.14 11.998c0 1.436 1.163 2.6 2.598 2.6H8.42v-2.06h3.041v3.021c0 1.174.95 2.126 2.124 2.127h.148c.304 0 .593-.064.84-.174l8.028-3.572.014-.005a2.117 2.117 0 0 0 1.246-1.93v-.013a2.12 2.12 0 0 0-1.259-1.934l-8.022-3.57h-.005a2.113 2.113 0 0 0-.841-.174h-.149a2.127 2.127 0 0 0-2.124 2.125v3.02h-3.04v-2.06H2.737a2.599 2.599 0 0 0-2.598 2.6Zm12.4.54v3.02c0 .578.468 1.046 1.045 1.046h.148c.15 0 .291-.03.42-.087l-.007.003 8.019-3.57c.367-.164.617-.526.617-.947v-.005c0-.42-.25-.782-.61-.944l-.006-.003-8.02-3.574a1.033 1.033 0 0 0-.412-.084h-.149c-.577 0-1.045.468-1.046 1.046v3.02h3.58v1.079h-3.58Zm-11.322-.54c0-.84.68-1.52 1.52-1.52h4.604v3.041H2.738c-.84 0-1.52-.68-1.52-1.52Z" clip-rule="evenodd"/></svg>