<svg width="310" height="90" fill="none" xmlns="http://www.w3.org/2000/svg"><path d="M38.995 10 0 48.988l21.998.008v31.003H174v-8H29.998v-31H19.303l19.695-19.69L58.68 41h11.314L38.995 10Z" fill="#fff"/><path d="M57.993 10H46.498l31.181 30.999h11.314L57.993 10ZM75.493 10H63.998l31.181 30.999h11.314L75.493 10ZM43.451 48.37h10.547c1.383 0 2.42.474 3.111 1.424.692.949 1.038 2.126 1.038 3.533v7.136c0 1.371-.37 2.473-1.108 3.305-.738.82-1.887 1.23-3.445 1.23h-16.19V39.722h6.047v8.649Zm0 12.093h8.631v-7.136h-8.63v7.136Zm18.334-11.882h15.557c1.57 0 2.719.416 3.445 1.248.727.82 1.09 1.916 1.09 3.287v11.883H66.285c-1.816 0-3.164-.48-4.043-1.442-.879-.973-1.318-2.244-1.318-3.814 0-1.043.181-1.94.545-2.69.375-.761.955-1.353 1.74-1.775.797-.434 1.822-.65 3.076-.65h8.033v4.324h-7.347v1.511h8.86v-7.347H61.784V48.58Zm36.299 0h6.047v16.418H89.225c-1.547 0-2.69-.41-3.428-1.23-.738-.833-1.108-1.934-1.108-3.306V48.581h6.047v11.882h7.348V48.581Zm9.475.175h14.045v6.926h-14.045v-6.926Zm31.675-.386V39.72h6.047V65h-16.189c-1.571 0-2.719-.41-3.446-1.23-.726-.833-1.089-1.934-1.089-3.306v-7.136c0-1.407.339-2.584 1.019-3.533.692-.95 1.729-1.424 3.112-1.424h10.546Zm0 12.093v-7.136h-8.63v7.136h8.63Zm23.608-5.836v-1.511h-8.86v7.347h14.291V65h-15.802c-1.571 0-2.719-.41-3.446-1.23-.726-.833-1.089-1.934-1.089-3.306v-7.347c0-1.371.363-2.467 1.089-3.287.727-.832 1.875-1.248 3.446-1.248h11.267c1.571 0 2.719.416 3.446 1.248.726.82 1.089 1.916 1.089 3.287v5.836h-12.744v-4.325h7.313Zm7.98-6.046h6.047v16.418h-6.047V48.58Zm0-1.512h6.047v-4.535h-6.047v4.535Zm14.766 17.93h-6.047V48.58h14.906c1.571 0 2.719.416 3.446 1.248.726.82 1.089 1.916 1.089 3.287v11.883h-6.046V53.116h-7.348v11.883Zm16.857-16.243h14.045v6.926h-14.045v-6.926Zm23.221-.386h9.316c1.383 0 2.42.474 3.112 1.424.691.949 1.037 2.126 1.037 3.533v11.672h-6.047V53.327h-7.418v11.672h-6.047V39.72h6.047v8.649Zm17.033.21h15.557c1.57 0 2.719.417 3.445 1.249.727.82 1.09 1.916 1.09 3.287v11.883h-15.592c-1.816 0-3.164-.48-4.043-1.442-.879-.973-1.318-2.244-1.318-3.814 0-1.043.182-1.94.545-2.69.375-.761.955-1.353 1.74-1.775.797-.434 1.822-.65 3.076-.65h8.033v4.324h-7.347v1.511h8.859v-7.347h-14.045V48.58Zm36.299 0h6.047V65h-14.906c-1.547 0-2.69-.41-3.428-1.23-.738-.833-1.107-1.934-1.107-3.306V48.581h6.046v11.882h7.348V48.581Zm14.221 0h14.01v4.536h-13.536v1.511h9.106c1.652 0 2.994.487 4.025 1.46 1.031.96 1.547 2.19 1.547 3.69 0 3.481-1.764 5.222-5.291 5.222h-15.434v-4.536h14.678v-1.511h-9.422c-3.504 0-5.256-1.752-5.256-5.256 0-1.512.51-2.742 1.53-3.692 1.019-.949 2.367-1.423 4.043-1.423ZM181.46 80h-1.216v-8.027h6.738V80h-1.23v-6.973h-4.292V80Zm15.029-4.021c0 1.309-.329 2.332-.989 3.069-.659.732-1.569 1.099-2.731 1.099-.718 0-1.355-.169-1.912-.506-.557-.337-.986-.82-1.289-1.45-.303-.63-.454-1.367-.454-2.212 0-1.309.327-2.327.981-3.054.655-.733 1.563-1.099 2.725-1.099 1.123 0 2.014.374 2.673 1.12.664.748.996 1.759.996 3.033Zm-6.115 0c0 1.025.205 1.807.615 2.344.41.537 1.013.805 1.809.805s1.399-.266 1.809-.798c.415-.537.622-1.32.622-2.351 0-1.02-.207-1.794-.622-2.322-.41-.532-1.018-.798-1.824-.798-.796 0-1.396.261-1.802.784-.405.522-.607 1.3-.607 2.336Zm11.462 4.168c-1.162 0-2.063-.357-2.703-1.07-.634-.718-.952-1.73-.952-3.04 0-1.342.322-2.38.967-3.112.649-.733 1.572-1.099 2.769-1.099.385 0 .771.042 1.157.125.385.083.688.18.908.293l-.374 1.032a5.422 5.422 0 0 0-.879-.263 3.799 3.799 0 0 0-.842-.11c-1.631 0-2.446 1.04-2.446 3.12 0 .986.198 1.743.593 2.27.401.528.991.791 1.773.791.669 0 1.355-.144 2.058-.432v1.077c-.537.278-1.214.418-2.029.418Zm9.353-7.134h-2.607V80h-1.216v-6.987h-2.578v-1.04h6.401v1.04Zm5.325 7.133a3.539 3.539 0 0 1-1.436-.285 2.726 2.726 0 0 1-1.084-.894h-.088c.059.469.088.913.088 1.333v3.303h-1.216v-11.63h.989l.169 1.098h.058c.313-.44.676-.757 1.091-.952.415-.195.892-.293 1.429-.293 1.064 0 1.884.364 2.461 1.092.581.727.871 1.747.871 3.061 0 1.318-.295 2.344-.886 3.076-.586.728-1.401 1.091-2.446 1.091Zm-.176-7.287c-.82 0-1.414.227-1.78.681-.366.454-.554 1.177-.564 2.168v.271c0 1.128.188 1.936.564 2.424.376.484.979.725 1.809.725.694 0 1.236-.28 1.626-.842.396-.561.593-1.335.593-2.322 0-1-.197-1.767-.593-2.3-.39-.537-.942-.805-1.655-.805Zm12.568 3.12c0 1.309-.329 2.332-.989 3.069-.659.732-1.569 1.099-2.731 1.099-.718 0-1.355-.169-1.912-.506-.557-.337-.986-.82-1.289-1.45-.303-.63-.454-1.367-.454-2.212 0-1.309.327-2.327.981-3.054.655-.733 1.563-1.099 2.725-1.099 1.123 0 2.014.374 2.673 1.12.664.748.996 1.759.996 3.033Zm-6.115 0c0 1.025.205 1.807.615 2.344.41.537 1.013.805 1.809.805s1.399-.266 1.809-.798c.415-.537.622-1.32.622-2.351 0-1.02-.207-1.794-.622-2.322-.41-.532-1.018-.798-1.824-.798-.796 0-1.396.261-1.802.784-.405.522-.607 1.3-.607 2.336Zm9.397-4.006v5.09l-.052 1.333-.022.418 4.344-6.841h1.516V80h-1.136v-4.907l.022-.967.037-.952L232.561 80h-1.516v-8.027h1.143Zm2.292-1.062c-.903 0-1.563-.174-1.978-.52-.415-.352-.647-.928-.695-1.729h1.142c.044.508.176.862.396 1.062.224.2.613.3 1.164.3.503 0 .874-.107 1.114-.322.244-.215.393-.561.446-1.04h1.15c-.058.772-.305 1.34-.74 1.707-.434.361-1.101.542-1.999.542Zm13.176 9.236c-1.162 0-2.063-.357-2.702-1.07-.635-.718-.953-1.73-.953-3.04 0-1.342.323-2.38.967-3.112.65-.733 1.573-1.099 2.769-1.099.386 0 .771.042 1.157.125.386.083.689.18.908.293l-.373 1.032a5.483 5.483 0 0 0-.879-.263 3.806 3.806 0 0 0-.842-.11c-1.631 0-2.447 1.04-2.447 3.12 0 .986.198 1.743.593 2.27.401.528.992.791 1.773.791.669 0 1.355-.144 2.058-.432v1.077c-.537.278-1.213.418-2.029.418Zm10.452-6.16c0 .522-.151.92-.454 1.194-.298.268-.718.449-1.26.542v.066c.684.092 1.182.293 1.494.6.318.308.476.733.476 1.275 0 .747-.276 1.323-.827 1.728-.547.405-1.348.608-2.403.608h-3.537v-8.027h3.523c1.992 0 2.988.671 2.988 2.014Zm-.96 3.596c0-.435-.166-.75-.498-.945-.327-.2-.871-.3-1.633-.3h-2.205v2.644h2.234c1.402 0 2.102-.466 2.102-1.399Zm-.227-3.479c0-.39-.151-.666-.454-.828-.298-.166-.752-.249-1.362-.249h-2.293v2.263h2.059c.752 0 1.281-.092 1.589-.278.308-.185.461-.488.461-.908Zm10.144 1.875c0 1.309-.329 2.332-.988 3.069-.66.732-1.57 1.099-2.732 1.099-.718 0-1.355-.169-1.912-.506-.557-.337-.986-.82-1.289-1.45-.303-.63-.454-1.367-.454-2.212 0-1.309.327-2.327.981-3.054.655-.733 1.563-1.099 2.725-1.099 1.123 0 2.014.374 2.673 1.12.664.748.996 1.759.996 3.033Zm-6.115 0c0 1.025.205 1.807.615 2.344.41.537 1.013.805 1.809.805s1.399-.266 1.809-.798c.415-.537.623-1.32.623-2.351 0-1.02-.208-1.794-.623-2.322-.41-.532-1.018-.798-1.824-.798-.796 0-1.396.261-1.801.784-.406.522-.608 1.3-.608 2.336Zm9.397-4.006v5.09l-.052 1.333-.022.418 4.344-6.841h1.516V80h-1.135v-4.907l.022-.967.036-.952L270.72 80h-1.516v-8.027h1.143Zm2.292-1.062c-.903 0-1.562-.174-1.977-.52-.415-.352-.647-.928-.696-1.729h1.142c.044.508.176.862.396 1.062.225.2.613.3 1.164.3.503 0 .874-.107 1.114-.322.244-.215.393-.561.447-1.04h1.149c-.058.772-.305 1.34-.739 1.707-.435.361-1.101.542-2 .542Zm16.941 11.865h-1.179V80h-5.61v2.776h-1.172v-3.823h.63c.654-.889 1.167-1.931 1.538-3.128.371-1.196.564-2.48.578-3.852h4.065v6.98h1.15v3.823Zm-2.322-3.823v-6.02h-1.801a13.39 13.39 0 0 1-.63 3.295c-.352 1.108-.791 2.017-1.319 2.725h3.75Zm10.862-2.974c0 1.309-.329 2.332-.989 3.069-.659.732-1.569 1.099-2.732 1.099-.717 0-1.355-.169-1.911-.506-.557-.337-.987-.82-1.289-1.45-.303-.63-.454-1.367-.454-2.212 0-1.309.327-2.327.981-3.054.654-.733 1.563-1.099 2.725-1.099 1.123 0 2.014.374 2.673 1.12.664.748.996 1.759.996 3.033Zm-6.116 0c0 1.025.205 1.807.616 2.344.41.537 1.013.805 1.809.805s1.399-.266 1.809-.798c.415-.537.622-1.32.622-2.351 0-1.02-.207-1.794-.622-2.322-.41-.532-1.018-.798-1.824-.798-.796 0-1.396.261-1.802.784-.405.522-.608 1.3-.608 2.336Zm12.422 2.85.227-.682.315-.864 2.176-5.296h1.545V80h-1.077v-6.628l-.146.424-.425 1.121L304.968 80h-1.018l-2.073-5.098c-.258-.654-.437-1.164-.534-1.53V80h-1.084v-8.013h1.487l2.102 5.09c.21.538.402 1.121.578 1.751Z" fill="#fff"/></svg>