<svg xmlns="http://www.w3.org/2000/svg" width="310" height="90" fill="none"><path fill="#9DCCE4" d="M38.995 10 0 48.988l21.998.008v31.003H308v-8H29.998v-31H19.303l19.695-19.69L58.68 41h11.314L38.995 10Z"/><path fill="#F89062" d="M57.993 10H46.498l31.18 30.999h11.315L57.993 10Zm17.5 0H63.998l31.18 30.999h11.314L75.492 10Z"/><path fill="#095682" d="M43.45 48.37h10.548c1.383 0 2.42.474 3.111 1.424.691.949 1.037 2.127 1.037 3.533v7.137c0 1.37-.369 2.472-1.107 3.304-.739.82-1.887 1.23-3.446 1.23H37.404V39.722h6.047v8.649Zm0 12.094h8.632v-7.137H43.45v7.137ZM61.786 48.58h15.557c1.57 0 2.718.416 3.445 1.248.726.82 1.09 1.916 1.09 3.287v11.883H66.285c-1.816 0-3.164-.48-4.043-1.442-.879-.972-1.318-2.244-1.318-3.814 0-1.043.181-1.94.544-2.69.375-.761.956-1.353 1.74-1.775.798-.434 1.823-.65 3.077-.65h8.033v4.324h-7.347v1.512h8.859v-7.348H61.785V48.58Zm36.299 0h6.047v16.418H89.224c-1.547 0-2.69-.41-3.427-1.23-.739-.833-1.108-1.934-1.108-3.305V48.58h6.047v11.883h7.348V48.58Zm9.474.175h14.045v6.926h-14.045v-6.926Zm31.676-.386V39.72h6.047V65h-16.189c-1.571 0-2.719-.41-3.446-1.23-.726-.833-1.09-1.934-1.09-3.305v-7.137c0-1.407.34-2.584 1.02-3.533.691-.95 1.728-1.424 3.111-1.424h10.547Zm0 12.094v-7.137h-8.631v7.137h8.631Zm23.608-5.837v-1.511h-8.86v7.348h14.291v4.535H152.47c-1.57 0-2.718-.41-3.445-1.23-.726-.833-1.09-1.934-1.09-3.305v-7.348c0-1.371.364-2.467 1.09-3.287.727-.832 1.875-1.248 3.445-1.248h11.268c1.57 0 2.719.416 3.445 1.248.727.82 1.09 1.916 1.09 3.287v5.836h-12.744v-4.325h7.313Zm7.98-6.046h6.047v16.418h-6.047V48.58Zm0-1.512h6.047v-4.535h-6.047v4.535Zm14.766 17.93h-6.047V48.58h14.906c1.57 0 2.719.416 3.445 1.248.727.82 1.09 1.916 1.09 3.287v11.883h-6.047V53.116h-7.347v11.883Zm16.857-16.243h14.045v6.926h-14.045v-6.926Zm23.221-.386h9.316c1.383 0 2.42.474 3.112 1.424.691.949 1.037 2.127 1.037 3.533v11.672h-6.047V53.327h-7.418v11.672h-6.047V39.72h6.047v8.649Zm17.033.21h15.557c1.57 0 2.718.417 3.445 1.249.726.82 1.09 1.916 1.09 3.287v11.883H247.2c-1.816 0-3.164-.48-4.043-1.442-.879-.972-1.318-2.244-1.318-3.814 0-1.043.181-1.94.545-2.69.375-.761.955-1.353 1.74-1.775.797-.434 1.822-.65 3.076-.65h8.033v4.324h-7.347v1.512h8.859v-7.348H242.7V48.58Zm36.299 0h6.047V65h-14.907c-1.546 0-2.689-.41-3.427-1.23-.739-.833-1.108-1.934-1.108-3.305V48.58h6.047v11.883h7.348V48.58Zm14.221 0h14.009v4.536h-13.535v1.511h9.106c1.652 0 2.994.487 4.025 1.46 1.031.96 1.547 2.19 1.547 3.69 0 3.481-1.764 5.222-5.291 5.222h-15.434v-4.535h14.678v-1.512h-9.422c-3.504 0-5.256-1.752-5.256-5.256 0-1.512.51-2.742 1.53-3.691 1.019-.95 2.367-1.424 4.043-1.424Z"/></svg>