<?xml version="1.0" encoding="utf-8"?><svg viewBox="0 0 60 60" xmlns="http://www.w3.org/2000/svg" xmlns:xlink="http://www.w3.org/1999/xlink"><style>:root>svg{display:none}:root>svg:target{display:block}</style><svg viewBox="0 0 8 8" id="arrow-down" xmlns="http://www.w3.org/2000/svg"><g clip-path="url(#aa)"><path d="M4.005 7.2 8 2.4H0l4.005 4.8Z"/></g><defs><clipPath id="aa"><path d="M0 0h8v8H0z"/></clipPath></defs></svg><svg viewBox="0 0 30 30" id="arrow-next" xmlns="http://www.w3.org/2000/svg"><path fill-rule="evenodd" d="M.175 14.998a3.249 3.249 0 0 0 3.248 3.25h7.102v-2.576h3.801v3.777a2.658 2.658 0 0 0 2.655 2.659h.185c.38 0 .741-.08 1.051-.217l10.035-4.466.016-.007a2.646 2.646 0 0 0 1.558-2.412v-.016a2.65 2.65 0 0 0-1.573-2.418L18.225 8.11h-.006a2.64 2.64 0 0 0-1.052-.217h-.186a2.659 2.659 0 0 0-2.655 2.657v3.775h-3.8V11.75H3.422a3.249 3.249 0 0 0-3.248 3.249Zm15.499.674v3.776c0 .721.586 1.307 1.307 1.307h.186c.186 0 .363-.038.524-.108l-.009.003 10.024-4.461c.458-.207.772-.66.772-1.186v-.005c0-.525-.313-.978-.763-1.18l-.008-.004-10.025-4.468a1.29 1.29 0 0 0-.515-.105h-.186c-.721 0-1.306.586-1.307 1.308v3.775h4.475v1.348h-4.475Zm-14.152-.674a1.9 1.9 0 0 1 1.9-1.901h5.756v3.802H3.423a1.9 1.9 0 0 1-1.9-1.901Z" clip-rule="evenodd"/></svg><svg viewBox="0 0 30 30" id="arrow-prev" xmlns="http://www.w3.org/2000/svg"><g clip-path="url(#ca)"><path fill-rule="evenodd" d="M29.825 15.002a3.249 3.249 0 0 0-3.248-3.25h-7.103v2.576h-3.8V10.55a2.658 2.658 0 0 0-2.655-2.659h-.185c-.38 0-.742.08-1.051.217L1.748 12.575l-.016.007a2.646 2.646 0 0 0-1.558 2.412v.016a2.65 2.65 0 0 0 1.573 2.418l10.028 4.463h.006c.322.14.678.217 1.052.217h.186a2.659 2.659 0 0 0 2.655-2.657v-3.775h3.8v2.575h7.103a3.249 3.249 0 0 0 3.248-3.249Zm-15.499-.674v-3.775c0-.722-.586-1.308-1.307-1.308h-.186a1.31 1.31 0 0 0-.524.108l.009-.003-10.024 4.462a1.299 1.299 0 0 0-.772 1.185v.005c0 .525.313.978.763 1.18l.008.004 10.025 4.468c.152.067.329.105.515.105h.186c.721 0 1.306-.585 1.307-1.308v-3.775H9.851v-1.348h4.475Zm14.152.674a1.9 1.9 0 0 1-1.9 1.901h-5.756v-3.802h5.755a1.9 1.9 0 0 1 1.9 1.901Z" clip-rule="evenodd"/></g><defs><clipPath id="ca"><path d="M30 30H0V0h30z"/></clipPath></defs></svg><svg viewBox="0 0 24 24" id="breadcrumbs-icon" xmlns="http://www.w3.org/2000/svg"><g clip-path="url(#da)"><path d="m11.5 13.24-.68-.685.127-.128a1.45 1.45 0 0 0 0-2.052l-.765-.775a1.427 1.427 0 0 0-1.022-.425 1.427 1.427 0 0 0-1.02.425l-.12.123-.6-.61a.846.846 0 0 0-.934-.189.848.848 0 0 0-.278.188l-.754.76a.866.866 0 0 0 0 1.214l.609.614-.126.127a1.462 1.462 0 0 0 0 2.05l.766.773a1.42 1.42 0 0 0 2.037.005l.12-.12.68.685-2.9 2.928a1.776 1.776 0 0 0-.005 2.52 1.746 1.746 0 0 0 2.51.002l2.897-2.925 3.015 3.045a1.385 1.385 0 0 0 2.044-.084 1.44 1.44 0 0 0-.12-1.933l-2.978-3.006 1.074-1.08a3.124 3.124 0 0 0 2.804-.874 3.174 3.174 0 0 0 .885-2.698.832.832 0 0 0-.567-.68.866.866 0 0 0-.895.21l-.96.97a.522.522 0 0 1-.725 0 .53.53 0 0 1 0-.744l.96-.969A.875.875 0 0 0 16.783 9a.826.826 0 0 0-.665-.563 3.117 3.117 0 0 0-2.685.894 3.185 3.185 0 0 0-.865 2.83L11.5 13.24Zm-5.48-2.715a.062.062 0 0 1 0-.088l.754-.76a.051.051 0 0 1 .038-.017.05.05 0 0 1 .038.016l.608.617-.834.842-.604-.61Zm1.704 3.76a.628.628 0 0 1-.453-.193l-.767-.775a.66.66 0 0 1 0-.925l.382-.385a.288.288 0 0 0 .024-.016c.007-.007.01-.018.017-.026l1.365-1.378c.004-.003.008-.004.01-.007.004-.003.005-.008.008-.012l.4-.404a.634.634 0 0 1 .905 0l.77.777a.651.651 0 0 1 0 .92l-2.213 2.233a.626.626 0 0 1-.452.19h.004Zm.852 5.823a.977.977 0 0 1-1.367-1.396l2.897-2.925 1.374 1.388-2.904 2.933Zm7.917.08a.6.6 0 0 1-.865.04l-6.2-6.26.834-.84 6.15 6.209a.646.646 0 0 1 .08.85h.001Zm-3.1-8.008a2.382 2.382 0 0 1 .606-2.287 2.311 2.311 0 0 1 1.994-.666c.003 0 .029.028.031.028a.086.086 0 0 1-.015.084l-.96.97a1.32 1.32 0 0 0 1.862 1.868l.96-.969a.072.072 0 0 1 .073-.014l.029.033a2.376 2.376 0 0 1-.662 2.02 2.32 2.32 0 0 1-2.256.612.397.397 0 0 0-.39.104l-1.225 1.234-1.376-1.389 1.228-1.244a.4.4 0 0 0 .1-.384Z"/><path d="M19.2.8h-2.4a.8.8 0 0 0-.8.8v.714L12.64.187a1.205 1.205 0 0 0-1.283 0L.38 7.14a.806.806 0 0 0-.274 1.085l.652 1.144a.809.809 0 0 0 1.14.28l.503-.324v13.074a1.6 1.6 0 0 0 1.6 1.6h15.998a1.6 1.6 0 0 0 1.6-1.6V9.325l.5.32a.806.806 0 0 0 1.143-.278l.652-1.144a.807.807 0 0 0-.273-1.084l-3.622-2.292V1.601a.8.8 0 0 0-.8-.8Zm-2.4.8h2.4v2.74l-2.4-1.52V1.6Zm4 20.799a.8.8 0 0 1-.8.8H4a.8.8 0 0 1-.8-.8V8.809L12 3.152l8.8 5.659V22.4Zm2.399-14.57-.664 1.146-10.103-6.497a.8.8 0 0 0-.865 0L1.453 8.974.808 7.816 11.786.863a.4.4 0 0 1 .428 0l10.985 6.966Z"/></g><defs><clipPath id="da"><path d="M0 0h24v24H0z"/></clipPath></defs></svg><svg viewBox="0 0 24 24" id="date" xmlns="http://www.w3.org/2000/svg"><g clip-path="url(#ea)"><path fill-rule="evenodd" d="M6.462 0c.51 0 .923.413.923.923v.923h9.23V.923a.923.923 0 0 1 1.847 0v.923h2.769A2.77 2.77 0 0 1 24 4.616V21.23A2.77 2.77 0 0 1 21.23 24H2.77A2.77 2.77 0 0 1 0 21.23V4.616a2.77 2.77 0 0 1 2.77-2.769h2.768V.923c0-.51.414-.923.924-.923Zm10.153 3.692v.923a.923.923 0 0 0 1.847 0v-.923h2.769c.51 0 .923.414.923.923v2.77H1.846v-2.77c0-.51.413-.923.923-.923h2.77v.923a.923.923 0 0 0 1.846 0v-.923h9.23ZM1.846 9.231v12c0 .51.413.923.923.923h18.462c.51 0 .923-.413.923-.923v-12H1.846ZM11.076 12a.923.923 0 1 1 1.847 0 .923.923 0 0 1-1.846 0Zm4.616-.923a.923.923 0 1 0 0 1.846.923.923 0 0 0 0-1.846Zm2.77.923a.923.923 0 1 1 1.846 0 .923.923 0 0 1-1.846 0Zm.923 2.77a.923.923 0 1 0 0 1.846.923.923 0 0 0 0-1.847Zm-4.616.922a.923.923 0 1 1 1.846 0 .923.923 0 0 1-1.846 0ZM12 14.77a.923.923 0 1 0 0 1.846.923.923 0 0 0 0-1.846Zm-4.615.923a.923.923 0 1 1 1.846 0 .923.923 0 0 1-1.846 0Zm-2.77-.923a.923.923 0 1 0 0 1.846.923.923 0 0 0 0-1.846Zm-.923 4.616a.923.923 0 1 1 1.847 0 .923.923 0 0 1-1.847 0Zm4.616-.924a.923.923 0 1 0 0 1.847.923.923 0 0 0 0-1.846Zm2.769.924a.923.923 0 1 1 1.846 0 .923.923 0 0 1-1.846 0Zm4.615-.924a.923.923 0 1 0 0 1.847.923.923 0 0 0 0-1.846Z" clip-rule="evenodd"/></g><defs><clipPath id="ea"><path d="M0 0h24v24H0z"/></clipPath></defs></svg><svg viewBox="0 0 31 30" id="facebook" xmlns="http://www.w3.org/2000/svg"><path d="M18.94 29.795c-.147.006-.24.017-.335.017-2.003 0-4.002-.005-6.005.006-.282 0-.358-.076-.358-.357.006-4.664.006-9.334.006-13.998v-.404H9.02v-4.98h.316c.879 0 1.758-.007 2.637.005.222 0 .28-.064.28-.281-.01-1.307-.01-2.62 0-3.926.007-.914.153-1.805.575-2.63.604-1.167 1.559-1.923 2.766-2.392.984-.386 2.021-.527 3.064-.544 1.7-.024 3.399-.012 5.098-.018.158 0 .287-.006.287.217-.006 1.611-.006 3.222-.006 4.834 0 .017-.006.035-.03.111h-.322c-1.054 0-2.109-.006-3.163 0-.61 0-1.102.246-1.413.78a1.127 1.127 0 0 0-.152.55c-.018.996 0 1.992-.012 2.988 0 .235.07.3.3.3 1.464-.012 2.929-.007 4.394-.007h.427c-.205 1.676-.404 3.317-.609 4.975h-4.518v14.754Z"/></svg><svg viewBox="0 0 24 24" id="forward" xmlns="http://www.w3.org/2000/svg"><g clip-path="url(#ga)"><path d="M.8 22.394a.802.802 0 0 1-.8-.8c0-7.27.92-13.316 12-13.591v-5.61a.8.8 0 0 1 1.343-.587l10.4 9.6a.797.797 0 0 1 0 1.175l-10.4 9.6a.797.797 0 0 1-1.213-.15.8.8 0 0 1-.13-.437v-5.59c-7.6.181-9.003 2.985-10.484 5.947a.8.8 0 0 1-.716.443Zm12-8a.8.8 0 0 1 .8.8v4.572l8.42-7.772L13.6 4.22v4.573a.8.8 0 0 1-.8.8c-8.838 0-10.74 3.418-11.115 8.877 1.657-2.226 4.481-4.077 11.115-4.077Z"/></g><defs><clipPath id="ga"><path d="M0 0h24v24H0z"/></clipPath></defs></svg><svg viewBox="0 0 24 24" id="header-icon" xmlns="http://www.w3.org/2000/svg"><g clip-path="url(#ha)"><path d="M18.752 12.167a.872.872 0 0 0-.284-.205.832.832 0 0 0-.96.202.93.93 0 0 0-.19.304.97.97 0 0 0 .207 1.012c.74.77 1.328 1.69 1.728 2.704.4 1.014.604 2.102.601 3.2 0 1.13-3.06 2.77-7.854 2.77-4.795 0-7.855-1.641-7.855-2.771a8.666 8.666 0 0 1 .594-3.18 8.295 8.295 0 0 1 1.706-2.694.927.927 0 0 0 .196-.3.968.968 0 0 0-.185-1.016.87.87 0 0 0-.287-.202.83.83 0 0 0-.675.006.873.873 0 0 0-.283.207 10.15 10.15 0 0 0-2.086 3.292 10.594 10.594 0 0 0-.725 3.889C2.4 22.383 7.346 24 12 24s9.6-1.617 9.6-4.615a10.587 10.587 0 0 0-.735-3.913 10.13 10.13 0 0 0-2.113-3.305Z"/><path d="M12 11.998a6 6 0 1 0-6-6 6.007 6.007 0 0 0 6 6Zm0-10.286a4.286 4.286 0 1 1 0 8.572 4.286 4.286 0 0 1 0-8.572Z"/></g><defs><clipPath id="ha"><path d="M0 0h24v24H0z"/></clipPath></defs></svg><svg viewBox="0 0 30 31" id="help-arrow" xmlns="http://www.w3.org/2000/svg"><path fill-rule="evenodd" d="M.175 15.498a3.249 3.249 0 0 0 3.248 3.25h7.102v-2.576h3.801v3.777a2.658 2.658 0 0 0 2.655 2.659h.185c.38 0 .741-.08 1.051-.217l10.035-4.466.016-.007a2.646 2.646 0 0 0 1.558-2.412v-.016a2.65 2.65 0 0 0-1.573-2.418L18.225 8.61h-.006a2.64 2.64 0 0 0-1.052-.217h-.186a2.659 2.659 0 0 0-2.655 2.657v3.775h-3.8V12.25H3.422a3.249 3.249 0 0 0-3.248 3.249Zm15.499.674v3.776c0 .721.586 1.307 1.307 1.307h.186c.186 0 .363-.038.524-.108l-.009.003 10.024-4.461c.458-.207.772-.66.772-1.186v-.005c0-.525-.313-.978-.763-1.18l-.008-.004-10.025-4.468a1.29 1.29 0 0 0-.515-.105h-.186c-.721 0-1.306.585-1.307 1.308v3.775h4.475v1.348h-4.475Zm-14.152-.674a1.9 1.9 0 0 1 1.9-1.901h5.756v3.802H3.423a1.9 1.9 0 0 1-1.9-1.901Z" clip-rule="evenodd"/></svg><svg viewBox="0 0 60 60" id="hero-1" xmlns="http://www.w3.org/2000/svg"><path d="M54.043 18.967h-2.57v4.224h-4.438v2.155h2.844v2.99h-8.576V25.44h-2.974v4.88h15.714V18.966Z"/><path d="M42.164 27.475h6.853v-1.268h-2.844v-3.879h4.439v-3.36H38.329v5.61h3.835v2.897Z"/><path fill-rule="evenodd" d="M53.137 11.778h2.043v.862H54v2.052h2.025V4.727h-5.379v2.69h-3.258v-.862h2.397V4.727h-3.732v9.965h7.085v-2.914Zm-3.413 1.577h-.862V8.951H53.8V7.046h.862v2.768h-4.94v3.541Z" clip-rule="evenodd"/><path fill-rule="evenodd" d="M32.58.91h26.083v33.14h-8.447l7.077 22.455h-1.241L46.785 34.05h-2.327l-9.274 22.453H33.95l7.076-22.453H32.58V21.095l1.767-1.042c1.45-.867 1.583-2.785.785-3.716l6.482-7.49-.035-.034-6.913 7.016c-.673-.505-1.355-.672-2.086-.543V.91Zm4.887 30.27h17.438V18.106H37.466v13.076Zm7.723-15.626h11.696V3.865H45.19v11.689Z" clip-rule="evenodd"/><path d="M18.26 8.14s-3.778-1.116-8.217.082l-.81-.885s-.471-3.074 2.132-4.562c.062.102.126.202.192.305.418.651.922 1.436 1.313 3.952-.002-.01 0-.056.002-.13.022-.616.115-3.235-1.117-4.88 0 0 1.983-1.537 4.868 0a.514.514 0 0 1-.042.06c-.23.305-1.318 1.745-1.132 4.958.008-.026.02-.114.037-.25.097-.763.386-3.028 1.426-4.147 0 0 2.389 1.23 2.223 4.694l-.876.802Z"/><path d="M9.98 9.523a4.766 4.766 0 0 0 8.374.016c.265-.058.414-.099.414-.099l.976-1.042v-.396l-.505.04-.86.877c-4.48-1.264-8.406 0-8.406 0l-.087-.083a42.803 42.803 0 0 1-.814-.793L8.6 8.002v.487l1.016.951c.125.033.24.058.365.083Z"/><path fill-rule="evenodd" d="M34.51 16.95c.447.67.29 1.827-.603 2.362-4.012 2.377-4.026 2.386-4.244 2.517-.158.095-.42.253-2.358 1.406a1.735 1.735 0 0 1-2.026-.19L21.736 19.9c-.896 11.73-1.03 13.5-1.167 15.27l-.28 3.624a.548.548 0 0 1-.285.43h-.009l.009 17.282a2.588 2.588 0 0 1-4.976.99 2.583 2.583 0 0 1-.195-.99V39.284h-1.32v17.22A2.583 2.583 0 0 1 9.1 58.33a2.587 2.587 0 0 1-.757-1.827l.008-17.282h-.008a.548.548 0 0 1-.285-.431l-.388-5.06c.465.058 1.135-.078 1.69-.466a2.582 2.582 0 0 0 .61-3.602l-2.93-4.138v-.008l-.31-3.965-1.138 1.922-.474.81 4.155 5.87a1.727 1.727 0 0 1-2.33 2.455 1.72 1.72 0 0 1-.488-.465L1.654 25.37a1.747 1.747 0 0 1-.078-1.88l.974-1.654 3.44-5.818c.462-.822 4.924-4.205 10.093-3.137 2.359.443 5.459 2.213 6.318 3l4.232 3.74 5.516-3.275c.76-.474 1.873-.234 2.362.604ZM14.144 27.01l1.663-2.07h.009l-.552-7.68H13.09l-.595 7.672h.018l1.629 2.077Zm-.966-10.345h2l.664-2.137c-1.104-.49-2.207-.49-3.31-.017l.646 2.154Z" clip-rule="evenodd"/></svg><svg viewBox="0 0 60 60" id="hero-2" xmlns="http://www.w3.org/2000/svg"><g clip-path="url(#ka)"><path d="m28.49 3.932-2.457.705.835 2.921 3.024 10.581-1.35.392c-3.595-12.588-1.617-5.656-1.513-5.294L24.683 5.02l-2.448.705-.436-1.515 1.472-2.065L27.627.91l.862 3.023ZM38.75 16.92v-4.408a10.68 10.68 0 0 1 3.86.114v4.294h-3.86Zm6.062-9.09s-3.818-1.128-8.304.083l-.817-.894s-.477-3.107 2.155-4.61c.062.102.126.203.193.306.422.658.932 1.453 1.327 3.995-.002-.01 0-.057.002-.135.022-.627.113-3.27-1.13-4.927 0 0 2.005-1.553 4.92 0a.53.53 0 0 1-.041.059c-.233.307-1.334 1.763-1.145 5.012a2.77 2.77 0 0 0 .037-.254c.099-.773.39-3.06 1.441-4.19 0 0 2.414 1.244 2.247 4.744l-.885.81Zm-29.085 4.795v4.295h-3.859v-4.4c-.018 0-.034.004-.05.006a.233.233 0 0 1-.037.004.33.33 0 0 1 .087-.017 10.66 10.66 0 0 1 3.86.112ZM8.706 25.762h-2.09l-.314-4.144c-.998 2.688-2.042 6.718-1.988 11.788a1.742 1.742 0 0 1-1.724 1.761h-.02a1.742 1.742 0 0 1-1.74-1.723C.715 22.742 4.97 16.223 5.15 15.95c.325-.488 2.67-2.001 3.556-2.428v12.239ZM17.928 7.83s-3.818-1.128-8.303.083l-.82-.894s-.476-3.107 2.158-4.61c.061.103.126.203.192.307.423.658.933 1.452 1.328 3.994-.002-.01 0-.057.002-.135.022-.627.112-3.27-1.13-4.927 0 0 2.004-1.553 4.92 0a.538.538 0 0 1-.042.058C16 2.014 14.9 3.47 15.088 6.72c.009-.027.02-.116.038-.253.098-.773.39-3.06 1.44-4.191 0 0 2.415 1.244 2.248 4.744l-.886.81Z"/><path d="M11.328 11.07a4.817 4.817 0 0 1-1.766-1.843 5.94 5.94 0 0 1-.368-.082l-1.028-.961V7.69l.476.042c.35.352.69.674.841.819l.07.066s3.968-1.278 8.495 0l.87-.885.51-.042v.4l-.986 1.053s-.15.041-.417.1a4.816 4.816 0 0 1-6.697 1.826Zm6.717 2.253v13.284h2.84l-.907 12.196a.555.555 0 0 1-.287.435l-.01.003c0 .01.002.019.003.028l.002.012v.007l.001.015v17.174a2.615 2.615 0 0 1-5.227 0V39.3h-1.337c0 .132 0 .264-.02.397l-2.617 17.175a2.614 2.614 0 1 1-5.167-.787L7.887 39.23a.495.495 0 0 1-.27-.427c-.28-3.744-.29-3.81-.297-3.849-.008-.051-.009-.056-.61-8.347h2.842V13.14l.033-.011c.157-.055.846-.295 1.439-.45v5.086h5.549v-4.948c.498.145.99.314 1.472.506Z"/><path d="M21.603 15.296a.02.02 0 0 0-.003-.003.009.009 0 0 0-.003-.002h-.016a17.4 17.4 0 0 0-2.692-1.585v12.056h2.091l.488-6.394c2.162 1.104 4.466 1.022 6.228-.61l-1.201-4.207c-1.568 3.291-3.283 1.943-4.288 1.153-.247-.194-.451-.354-.6-.404l-.004-.004Zm8.367-.04c.427-1.036.776-2.239 1.054-3.606a1.747 1.747 0 0 0-1.36-2.065 1.73 1.73 0 0 0-1.254.227l1.56 5.444Zm6.476-6.029a4.816 4.816 0 0 0 8.462.017c.267-.059.417-.1.417-.1l.986-1.053v-.4l-.51.042-.87.885c-4.526-1.278-8.495 0-8.495 0a43.518 43.518 0 0 1-.91-.885l-.476-.042v.493l1.027.96c.126.033.243.059.369.083Zm8.481 4.096c-.482-.19-.973-.355-1.471-.497v4.94h-5.55v-5.088c-.593.155-1.282.396-1.439.45l-.032.012v13.467h-2.84l.121 1.995v.009c.48 1.263 1.263 2.614 2.44 4.015a2.615 2.615 0 0 1-1.803 4.287l.148 1.89a.558.558 0 0 0 .27.427l-2.567 16.854a2.613 2.613 0 1 0 5.167.787l2.616-17.175c.02-.133.02-.265.02-.397h1.338v17.178a2.615 2.615 0 0 0 5.227 0V39.303a.233.233 0 0 0-.003-.034.278.278 0 0 1-.004-.029l.01-.002a.552.552 0 0 0 .287-.435l.2-2.648.148-1.847.557-7.7h-2.84V13.322Z"/><path d="M45.773 25.762V13.706c.478.222.944.513 1.425.812 1.45.904 3.031 1.889 5.458 1.34l-.236 3.562c-1.055.124-2.575.007-4.034-.453l-.522 6.795h-2.091ZM57.55 11.886c.201.01.4.058.584.139a1.744 1.744 0 0 1 .889 2.3c-.488 1.106-1.09 2.038-1.821 2.796l.348-5.235ZM35.886 34.464a1.74 1.74 0 0 1-.62 1.177 1.73 1.73 0 0 1-2.448-.217c-6.077-7.273-4.778-15.476-.47-19.784.087-.093 1.897-1.465 3.241-2.117v12.239H33.5l-.384-5c-1.975 4.36-.736 8.72 2.378 12.43.294.355.436.813.393 1.272Z"/><path fill-rule="evenodd" d="m55.79 25.362-2.874-.192.113-1.723c.15-2.291.445-6.78 1.298-19.585l2.865.183-1.402 21.317Zm-1.393-.758a.59.59 0 0 0 .619-.55l.105-1.54a.58.58 0 0 0-.55-.619.568.568 0 0 0-.61.531l-.104 1.56a.59.59 0 0 0 .54.618Zm.218-3.424c.336-.056.602-.158.627-.55l.071-1.077c.015-.223.032-.463.26-3.966a.59.59 0 0 0-.54-.627.61.61 0 0 0-.627.557l-.331 5.036a.615.615 0 0 0 .54.627Zm.537-16.23a.576.576 0 0 0-.058.22l-.105 1.55a.59.59 0 0 0 .967.48.58.58 0 0 0 .2-.402l.105-1.55a.59.59 0 0 0-.971-.478.576.576 0 0 0-.138.18Zm-.229 3.43a.579.579 0 0 0-.056.22l-.331 5.036a.571.571 0 0 0 .531.618h.01a.59.59 0 0 0 .627-.54l.33-5.044a.596.596 0 0 0-.548-.618.58.58 0 0 0-.563.327Z" clip-rule="evenodd"/></g><defs><clipPath id="ka"><path fill="#fff" d="M0 0h60v60H0z"/></clipPath></defs></svg><svg viewBox="0 0 60 60" id="hero-3" xmlns="http://www.w3.org/2000/svg"><path d="M11.997 12.51v4.39h3.844v-4.28a10.65 10.65 0 0 0-3.844-.112Zm-2.23-4.584c3.962-1.1 7.529-.26 8.17-.108.059.014.093.022.1.022l.886-.807c.165-3.48-2.24-4.722-2.24-4.722-.996.996-1.36 3.614-1.452 4.275-.012.087-.019.14-.022.151-.196-3.24.904-4.685 1.137-4.992a.428.428 0 0 0 .043-.059c-2.908-1.544-4.904 0-4.904 0 1.256 1.697 1.154 4.306 1.13 4.915-.002.074-.004.118-.002.128-.404-2.541-.93-3.363-1.337-3.995-.064-.1-.125-.196-.182-.292-2.071 1.192-2.11 3.192-2.13 4.209-.003.15-.005.28-.014.382l.817.893Z"/><path fill-rule="evenodd" d="M33.518 52.447h24.486c.153 0 .3.058.407.162a.543.543 0 0 1 .169.391.54.54 0 0 1-.169.392.588.588 0 0 1-.407.162H33.518c-3.38 0-3.887-1.732-3.887-2.766 0-1.311 1.227-2.396 2.96-2.694L30.138 34.91h6.19a.59.59 0 0 0 .406-.162.542.542 0 0 0 .17-.391.542.542 0 0 0-.17-.392.587.587 0 0 0-.407-.162h-6.396c-1.617-1.354-2.569-2.386-3.087-3.173-.329-.36-.947-.94-1.662-1.608-1.568-1.468-3.599-3.369-4.044-4.335l-.087 1.135H19V13.7c.96.476 3.15 1.735 3.296 2.794.24 1.716 3.904 7.471 6.087 10.506h.117s1.8 2.498 2.156 4.426h27.187c.153 0 .3.058.407.162a.543.543 0 0 1 .169.39v9.875a3.886 3.886 0 0 1-.993 2.607 4.186 4.186 0 0 1-2.525 1.349l-21.815 3.319c-1.319.155-2.303.857-2.303 1.66 0 .442 0 1.66 2.735 1.66ZM47.48 33.81h-.939c-.153 0-.3.058-.407.162a.543.543 0 0 0-.169.391.54.54 0 0 0 .169.391.588.588 0 0 0 .407.162h.939a.588.588 0 0 0 .407-.162.543.543 0 0 0 .168-.39.543.543 0 0 0-.168-.392.588.588 0 0 0-.407-.162Zm-2.914 0h-6.385a.588.588 0 0 0-.407.162.542.542 0 0 0-.169.391c0 .147.061.288.17.391a.588.588 0 0 0 .406.162h6.385c.153 0 .3-.058.407-.162a.542.542 0 0 0 .169-.39.542.542 0 0 0-.169-.392.588.588 0 0 0-.407-.162Z" clip-rule="evenodd"/><path d="M36.656 59.086c1.475 0 2.671-1.15 2.671-2.567 0-1.418-1.196-2.567-2.671-2.567-1.476 0-2.672 1.15-2.672 2.567 0 1.417 1.196 2.567 2.672 2.567Zm16.264 0c1.476 0 2.672-1.15 2.672-2.567 0-1.418-1.196-2.567-2.672-2.567-1.475 0-2.671 1.15-2.671 2.567 0 1.417 1.196 2.567 2.671 2.567ZM9.697 9.237a7.726 7.726 0 0 1-.365-.087l-1.024-.954v-.487l.478.035.91.885c.007 0 .03-.006.068-.016.554-.142 4.343-1.114 8.395.016l.868-.885.502-.035v.4l-.98 1.042s-.148.044-.417.105c-.648 1.295-2.294 2.499-4.209 2.499a4.805 4.805 0 0 1-4.226-2.518Zm6.987 3.575c.498.14.987.309 1.466.504l.001 13.236h2.83v.39l-.903 11.76a.54.54 0 0 1-.539.495h-.167a69.276 69.276 0 0 1-.038 17.685 2.604 2.604 0 0 1-5.163-.677 64.084 64.084 0 0 0 0-16.666c-.012-.093-.01-.184-.01-.276v-.066h-.91c0 .02.002.038.004.057a.547.547 0 0 1 .003.07c-.408 8.566-2.056 14.529-5.186 18.766a2.605 2.605 0 0 1-4.189-3.094c2.45-3.317 3.815-8.507 4.17-15.864a.528.528 0 0 1-.29-.43l-.13-1.796-.773-9.964v-.391h2.83V13.134c.494-.183.98-.338 1.466-.46v5.068h5.528v-4.93Z"/><path d="M4.473 33.327c-.052-4.901.978-8.842 1.995-11.53l.304 3.912h2.075V13.516c-1.403.67-3.056 1.956-3.312 2.327-.19.274-4.646 6.84-4.533 17.52a1.736 1.736 0 0 0 1.736 1.717h.019a1.735 1.735 0 0 0 1.716-1.753Z"/></svg><svg viewBox="0 0 60 60" id="hero-4" xmlns="http://www.w3.org/2000/svg"><path d="M44.423 36.7v7.032c0 .638.474 1.139 1.07 1.148l-1.484 11.9a2.587 2.587 0 0 1-2.563 2.268 2.58 2.58 0 0 1-2.572-2.908c.646-5.144 1.024-8.21 1.252-10.058.322-2.617.343-2.787.396-2.947l.01-.026.016-.05.03-.093.003-.008c.289-.899 2.389-7.423 2.444-7.518a5.138 5.138 0 0 1-.89-2.597l-.922-15.49a5.184 5.184 0 0 1 4.866-5.478c2.84-.173 5.307 2.01 5.47 4.858l.26 4.383c-1.285-3.626-2.934-5.374-3.114-5.564l-.01-.01a2.58 2.58 0 0 0-4.402 1.793 2.614 2.614 0 0 0 .709 1.84c2.964 3.14 3.046 8.925 3.09 12.061.014.955.024 1.664.11 1.978a6.86 6.86 0 0 1-.498 0c-.312-.007-.54-.012-.77.111-.417.19-.655.625-.655 1.062v1.165h-.768c-.595 0-1.078.509-1.078 1.147ZM22.838 7.716s-3.78-1.117-8.224.083l-.811-.886s-.472-3.078 2.134-4.568c.062.104.126.204.193.308.419.653.923 1.439 1.314 3.954-.003-.01 0-.057.002-.134.021-.624.111-3.24-1.12-4.88 0 0 1.986-1.54 4.874 0a.678.678 0 0 1-.041.058c-.231.307-1.32 1.751-1.134 4.964.009-.026.02-.114.037-.249.097-.763.386-3.03 1.428-4.152 0 0 2.39 1.232 2.225 4.7l-.877.802Z"/><path d="M35.216 23.74c2.555-1.614 4.298-3.34 5.212-5.16l.311 5.237c-1.312 1.278-2.96 2.468-4.927 3.599a1.69 1.69 0 0 1-.855.224c-.231 0-.204-.022-.063-.136.201-.162.633-.51.874-1.245a2.602 2.602 0 0 0-.552-2.52ZM47.65 44.88h5.204l1.19 11.346a2.6 2.6 0 0 1-2.58 2.865 2.586 2.586 0 0 1-2.57-2.321L47.67 45.052c-.01-.035-.01-.07-.01-.104l-.008-.069Zm2.727-39.537c.433 2.653-1.36 5.153-4.005 5.577a4.844 4.844 0 0 1-5.578-4.005 4.852 4.852 0 0 1 7.623-4.73 4.858 4.858 0 0 1 1.96 3.158ZM14.552 9.1a4.77 4.77 0 0 0 8.383.018c.264-.058.413-.099.413-.099l.977-1.043v-.398l-.505.041-.86.877c-4.485-1.266-8.416 0-8.416 0a38.477 38.477 0 0 1-.902-.877l-.472-.04v.487l1.018.952c.124.033.24.058.364.083Z"/><path d="M27.37 16.363c.053.239 1.306 5.847 6.447 7.467a1.726 1.726 0 0 1-1.039 3.293c-3.229-1.018-5.316-3.124-6.648-5.148l-1.26 16.424a.598.598 0 0 1-.053.191v.001l1.033 17.757a2.59 2.59 0 0 1-4.306 2.085 2.589 2.589 0 0 1-.863-1.784l-1.033-17.757h-.576v-1.078h-1.303c.014-1.185-.584-1.96-1.812-2.046h-.017v-.397h-1.786v-1.32h-.915a2.588 2.588 0 0 0-.267-1.916 11.105 11.105 0 0 1-1.001-2.278l-.636-8.288c-.94 2.862-1.44 6.928.889 10.993a1.726 1.726 0 0 1-2.996 1.715c-5.289-9.23.88-18.24 1.146-18.62 3.956-5.654 16.208-3.069 16.997.706Z"/><path d="M16.923 47.157h-4.711v-.276h-.018l-.551 9.465a2.594 2.594 0 0 0 2.433 2.736c1.708 0 2.665-1.19 2.736-2.434l.586-10.018a1.895 1.895 0 0 1-.474.19l-.001.337ZM4.34 44.914c0 .663.54 1.195 1.202 1.195h.3v.277h.202v-.277h.786v.277h.2v-.277h.787v.277h.208v-.277h.787v.277h.2v-.277h3.973v.277h.2v-.277h.787v.277h.2v-.277h.787v.277h.208v-.277h.787v.277h.2v-.277h.293c.664 0 1.203-.532 1.203-1.195v-4.682H4.34v4.682Zm12.652-7.369c0-.561-.477-.969-1.023-1.007h.185v-.393h-.2v.39h-.783v-.388h-.216v.389h-.785v-.389h-.198v.389h-.596v-1.718h-.474c-.085.14-.187.271-.302.388h.397v1.32H9.002v-1.181a1.941 1.941 0 0 1-.388-.45v1.64h-.588v-.388H7.82v.389h-.785v-.389h-.208v.389h-.783v-.391h-.201v.393h.186c-.58.032-1.03.468-1.03 1.007v1.035H3.694v.88h14.6v-.88h-1.302l-.001-1.035Zm38.976-1.208h-1.51v-1.95c0-.207-.155-.388-.363-.388h-1.26c-.24.362-.59.657-.845.786h1.734v1.553h-5.97v-1.553h1.621a2.495 2.495 0 0 1-.828-.786 12.31 12.31 0 0 1-.81 0c-.358-.01-.495-.014-.618.116a.396.396 0 0 0-.108.272v1.95H45.5c-.191 0-.337.165-.337.363v.682c.808 1.364 3.23 1.938 4.832 2.044v-.681h1.476v.681c1.572-.078 4.053-.716 4.832-2.044V36.7c0-.2-.146-.363-.336-.363Z"/><path d="M51.473 40.98v-.77c1.613-.075 3.636-.588 4.832-1.673v5.195c0 .199-.147.362-.337.362H45.502c-.19 0-.337-.164-.337-.362v-5.195c1.199 1.093 3.226 1.6 4.832 1.674v.768h1.476Zm-6.34-23.625c.006-.455.191-.89.515-1.21 3.863-3.765 8.368 13.201 6.627 17.069-.686 1.765-3.376 1.195-3.313-.751.197-4.164-.747-11.8-3.348-13.884a1.736 1.736 0 0 1-.481-1.224Z"/></svg><svg viewBox="0 0 31 30" id="instagram" xmlns="http://www.w3.org/2000/svg"><g clip-path="url(#na)"><path d="M29.965 15.058c0 2.04-.04 4.084.012 6.123.088 3.61-2.18 6.399-5.068 7.641a9.166 9.166 0 0 1-3.639.762c-3.943.006-7.892.058-11.836-.018-2.97-.058-5.414-1.3-7.166-3.75-.92-1.289-1.36-2.754-1.36-4.342V8.877c0-3.428 1.67-5.824 4.636-7.383C6.833.82 8.233.533 9.692.527c3.826 0 7.658-.023 11.484.012 2.971.023 5.45 1.16 7.278 3.55 1.02 1.337 1.511 2.872 1.511 4.56v6.41Zm-26.894 0v6.446c0 .96.223 1.863.72 2.677 1.307 2.14 3.282 3.182 5.731 3.223 3.932.059 7.87.024 11.807.012.966 0 1.904-.2 2.777-.615 2.379-1.137 3.71-2.948 3.697-5.666-.023-4.16-.006-8.32-.006-12.48 0-1.179-.334-2.257-1.03-3.206-1.348-1.822-3.212-2.719-5.438-2.742-3.926-.047-7.852-.018-11.778-.012-.838 0-1.646.17-2.431.463-2.157.803-4.16 2.836-4.067 5.83.07 2.027.018 4.049.018 6.07Z"/><path d="M15.469 21.27c-3.78 0-6.826-3.012-6.832-6.762-.006-3.692 3.064-6.715 6.82-6.715 3.768-.006 6.826 3.012 6.832 6.732 0 3.715-3.053 6.739-6.82 6.745Zm0-2.168c2.572 0 4.658-2.057 4.652-4.588-.006-2.508-2.092-4.559-4.652-4.559-2.572 0-4.67 2.045-4.67 4.57.006 2.532 2.098 4.582 4.67 4.577Zm7.611-13.36c.792 0 1.436.674 1.436 1.5-.006.826-.656 1.494-1.447 1.488-.78-.005-1.418-.673-1.418-1.482-.006-.826.639-1.506 1.43-1.506Z"/></g><defs><clipPath id="na"><path d="M.375 0h30v30h-30z"/></clipPath></defs></svg><svg viewBox="0 0 20 21" id="star" xmlns="http://www.w3.org/2000/svg"><path d="M7.096 6.447 10 .278l2.904 6.17a.67.67 0 0 0 .502.382l6.495.995-4.7 4.8a.72.72 0 0 0-.191.618l1.109 6.78-5.809-3.203a.64.64 0 0 0-.62 0l-5.808 3.203 1.109-6.78a.72.72 0 0 0-.192-.618l-4.7-4.8 6.496-.995a.67.67 0 0 0 .501-.383Z"/></svg><svg viewBox="0 0 31 30" id="telegram" xmlns="http://www.w3.org/2000/svg"><g clip-path="url(#pa)"><path fill-rule="evenodd" d="M30.625 5.46c-1.103.501-2.29.84-3.535.992a6.298 6.298 0 0 0 2.707-3.49 12.121 12.121 0 0 1-3.911 1.53A6.07 6.07 0 0 0 21.394 2.5c-3.397 0-6.153 2.826-6.153 6.311 0 .495.053.975.159 1.437-5.115-.263-9.65-2.773-12.687-6.596a6.427 6.427 0 0 0-.833 3.176 6.353 6.353 0 0 0 2.738 5.253 6.043 6.043 0 0 1-2.79-.787v.077c0 3.06 2.123 5.61 4.94 6.188a5.864 5.864 0 0 1-1.622.223c-.396 0-.783-.038-1.159-.112.784 2.506 3.056 4.332 5.75 4.38a12.153 12.153 0 0 1-7.644 2.703c-.497 0-.988-.028-1.469-.086A17.137 17.137 0 0 0 10.06 27.5c11.322 0 17.512-9.616 17.512-17.956 0-.275-.006-.549-.016-.818 1.203-.89 2.247-2 3.07-3.267Z" clip-rule="evenodd"/></g><defs><clipPath id="pa"><path d="M.625 0h30v30h-30z"/></clipPath></defs></svg><svg viewBox="0 0 31 30" id="tg-contact" xmlns="http://www.w3.org/2000/svg"><g clip-path="url(#qa)"><path d="M28.446 1.503c-.388.018-.753.13-1.078.256h-.004c-.33.131-1.893.79-4.27 1.786l-8.52 3.588C8.461 9.707 2.452 12.241 2.452 12.241l.072-.027s-.415.135-.848.433c-.22.144-.464.342-.676.653a1.921 1.921 0 0 0-.32 1.28c.104.835.645 1.335 1.032 1.61.392.28.767.41.767.41h.009l5.635 1.898c.252.812 1.718 5.627 2.07 6.736.207.662.41 1.077.662 1.393.122.162.266.297.437.405.068.041.14.073.212.1a.192.192 0 0 0 .072.022l-.058-.013c.018.004.031.018.045.022.045.014.076.018.135.027.893.27 1.61-.284 1.61-.284l.04-.031 3.327-3.03 5.577 4.279.126.054c1.163.51 2.34.225 2.962-.275.627-.505.87-1.15.87-1.15l.04-.104 4.31-22.076c.122-.546.154-1.055.018-1.551-.135-.496-.482-.96-.901-1.208a2.16 2.16 0 0 0-1.231-.311Zm-.117 2.366c-.005.072.009.063-.023.203v.014l-4.269 21.847c-.018.031-.05.099-.135.166-.09.073-.163.118-.537-.031l-6.82-5.23-4.121 3.756.865-5.527S23.974 9.107 24.434 8.68c.46-.429.306-.519.306-.519.032-.523-.694-.153-.694-.153L9.994 16.713l-.005-.022-6.735-2.268v-.004c-.004 0-.013-.005-.018-.005a.273.273 0 0 0 .036-.014l.036-.018.036-.013 12.127-5.108 8.516-3.588a1207.28 1207.28 0 0 1 4.225-1.768c.094-.036.05-.036.117-.036Z"/></g><defs><clipPath id="qa"><path d="M.667.5h30v29h-30z"/></clipPath></defs></svg><svg viewBox="0 0 31 30" id="viber" xmlns="http://www.w3.org/2000/svg"><g clip-path="url(#ra)"><path d="M26.906 2.921c-.744-.685-3.755-2.87-10.47-2.9 0 0-7.914-.474-11.77 3.064-2.143 2.145-2.9 5.29-2.981 9.187-.082 3.896-.182 11.196 6.854 13.176h.006L8.54 28.47s-.046 1.224.762 1.47c.973.305 1.547-.627 2.478-1.628a92.05 92.05 0 0 0 1.746-1.975c4.816.404 8.513-.521 8.934-.656.973-.316 6.474-1.02 7.365-8.32.925-7.533-.445-12.29-2.918-14.44Zm.815 13.891c-.756 6.093-5.215 6.48-6.035 6.743-.351.112-3.603.92-7.686.657 0 0-3.047 3.673-3.996 4.628-.31.31-.65.281-.644-.334 0-.404.023-5.02.023-5.02-.006 0-.006 0 0 0-5.964-1.653-5.613-7.87-5.548-11.12.064-3.252.68-5.918 2.496-7.71 3.263-2.96 9.983-2.52 9.983-2.52 5.677.024 8.395 1.734 9.028 2.308 2.091 1.793 3.158 6.082 2.379 12.368Zm-8.144-4.734c.023.504-.732.54-.756.036-.064-1.29-.668-1.916-1.91-1.987-.503-.029-.457-.785.041-.755 1.635.087 2.543 1.025 2.625 2.706Zm1.19.662c.058-2.484-1.495-4.429-4.441-4.646-.498-.035-.446-.79.052-.755 3.398.246 5.209 2.583 5.144 5.419-.006.504-.767.48-.756-.018Zm2.753.785c.006.504-.756.51-.756.006-.035-4.775-3.216-7.376-7.077-7.405-.498-.006-.498-.756 0-.756 4.318.03 7.792 3.012 7.833 8.155Zm-.662 5.748v.011c-.633 1.114-1.816 2.344-3.035 1.951l-.012-.017c-1.236-.346-4.147-1.846-5.987-3.31a15.317 15.317 0 0 1-2.484-2.484 19.015 19.015 0 0 1-1.805-2.73C8.287 10.438 8.012 9.43 8.012 9.43c-.392-1.218.832-2.402 1.951-3.035h.012c.539-.28 1.054-.187 1.4.229 0 0 .726.867 1.037 1.295.293.398.685 1.037.89 1.394.358.639.135 1.289-.216 1.558l-.703.563c-.358.287-.31.82-.31.82s1.042 3.943 4.938 4.939c0 0 .533.047.82-.31l.563-.704c.27-.351.92-.574 1.558-.216.861.486 1.957 1.242 2.683 1.927.41.334.504.844.223 1.383Z"/></g><defs><clipPath id="ra"><path d="M.667 0h30v30h-30z"/></clipPath></defs></svg><svg viewBox="0 0 31 30" id="whatsapp" xmlns="http://www.w3.org/2000/svg"><g clip-path="url(#sa)"><path d="M22.537 17.978c-.376-.19-2.207-1.083-2.55-1.21-.342-.123-.59-.186-.84.19-.243.366-.961 1.205-1.18 1.45-.22.244-.436.263-.806.097-.376-.19-1.577-.58-3.003-1.86-1.114-.99-1.855-2.211-2.075-2.587-.22-.371-.025-.581.16-.767.171-.17.377-.43.567-.654.181-.225.24-.376.371-.62.122-.264.06-.469-.033-.654-.093-.186-.84-2.026-1.153-2.76-.298-.727-.61-.634-.84-.634-.214-.02-.464-.02-.712-.02-.249 0-.654.093-.997.45-.342.375-1.308 1.273-1.308 3.09 0 1.822 1.337 3.584 1.523 3.848.19.243 2.632 3.993 6.377 5.605.893.376 1.587.6 2.129.786.893.284 1.709.244 2.353.151.713-.117 2.207-.903 2.52-1.782.318-.884.318-1.616.225-1.782-.093-.17-.337-.263-.712-.43l-.016.093Zm-6.793 9.21h-.02c-2.216 0-4.408-.601-6.323-1.725l-.449-.268-4.687 1.22 1.26-4.56-.303-.469a12.343 12.343 0 0 1-1.895-6.572c0-6.806 5.572-12.358 12.427-12.358 3.32 0 6.436 1.294 8.78 3.638a12.241 12.241 0 0 1 3.637 8.74c-.01 6.802-5.576 12.354-12.422 12.354h-.005ZM26.316 4.311C23.464 1.557 19.714 0 15.725 0 7.497 0 .798 6.67.793 14.868a14.8 14.8 0 0 0 1.992 7.431L.667 30l7.92-2.065a15.121 15.121 0 0 0 7.139 1.81h.004c8.233 0 14.932-6.67 14.937-14.873a14.73 14.73 0 0 0-4.37-10.513l.019-.047Z"/></g><defs><clipPath id="sa"><path d="M.667 0h30v30h-30z"/></clipPath></defs></svg><svg viewBox="0 0 31 30" id="youtube" xmlns="http://www.w3.org/2000/svg"><g clip-path="url(#ta)"><path fill-rule="evenodd" d="M.265 10.615a5.993 5.993 0 0 1 5.343-5.574 95.303 95.303 0 0 1 9.517-.466c3.314 0 6.51.163 9.517.468a5.99 5.99 0 0 1 5.343 5.572 68.953 68.953 0 0 1 0 8.775 5.993 5.993 0 0 1-5.343 5.574 95.303 95.303 0 0 1-9.517.467c-3.313 0-6.51-.164-9.518-.468A5.99 5.99 0 0 1 .264 19.39a68.953 68.953 0 0 1 0-8.775ZM19.71 15l-7.364 4.492v-8.985L19.71 15Z" clip-rule="evenodd"/></g><defs><clipPath id="ta"><path d="M.125 0h30v30h-30z"/></clipPath></defs></svg></svg>